{"glyphs":{"0":{"ha":632,"x_min":24,"x_max":608,"o":"m 94 929 l 24 858 l 24 0 l 538 0 l 608 71 l 608 929 l 94 929 m 332 288 l 300 288 l 300 642 l 332 642 l 332 288 z "},"1":{"ha":457,"x_min":24,"x_max":433,"o":"m 24 642 l 157 642 l 157 0 l 433 0 l 433 929 l 24 929 l 24 642 z "},"2":{"ha":606,"x_min":24,"x_max":582,"o":"m 300 319 l 511 319 l 582 392 l 582 858 l 511 929 l 94 929 l 24 858 l 24 642 l 306 642 l 306 610 l 94 610 l 24 539 l 24 0 l 582 0 l 582 288 l 300 288 l 300 319 z "},"3":{"ha":606,"x_min":24,"x_max":582,"o":"m 511 464 l 582 535 l 582 858 l 511 929 l 24 929 l 24 642 l 306 642 l 306 610 l 24 610 l 24 319 l 306 319 l 306 288 l 24 288 l 24 0 l 511 0 l 582 71 l 582 393 l 511 464 z "},"4":{"ha":632,"x_min":24,"x_max":608,"o":"m 332 465 l 300 465 l 300 929 l 24 929 l 24 249 l 94 178 l 332 178 l 332 0 l 608 0 l 608 929 l 332 929 l 332 465 z "},"5":{"ha":606,"x_min":24,"x_max":582,"o":"m 306 319 l 24 319 l 24 929 l 582 929 l 582 642 l 300 642 l 300 610 l 511 610 l 582 539 l 582 71 l 511 0 l 94 0 l 24 71 l 24 288 l 306 288 l 306 319 z "},"6":{"ha":632,"x_min":24,"x_max":608,"o":"m 608 610 l 608 71 l 538 0 l 94 0 l 24 71 l 24 858 l 94 929 l 538 929 l 608 858 l 608 642 l 300 642 l 300 288 l 332 288 l 332 610 l 608 610 z "},"7":{"ha":606,"x_min":24,"x_max":582,"o":"m 356 319 l 511 319 l 582 392 l 582 929 l 24 929 l 24 642 l 306 642 l 306 610 l 150 610 l 79 539 l 79 0 l 356 0 l 356 319 z "},"8":{"ha":632,"x_min":24,"x_max":608,"o":"m 94 929 l 538 929 l 608 858 l 608 535 l 536 464 l 608 393 l 608 71 l 538 0 l 94 0 l 24 71 l 24 393 l 96 464 l 24 535 l 24 858 l 94 929 m 300 288 l 332 288 l 332 642 l 300 642 l 300 288 z "},"9":{"ha":632,"x_min":24,"x_max":608,"o":"m 24 319 l 24 858 l 94 929 l 538 929 l 608 858 l 608 71 l 538 0 l 94 0 l 24 71 l 24 288 l 332 288 l 332 642 l 300 642 l 300 319 l 24 319 z "}," ":{"ha":271,"x_min":0,"x_max":0,"o":""},"!":{"ha":324,"x_min":24,"x_max":300,"o":"m 300 319 l 300 929 l 24 929 l 24 319 l 300 319 m 24 0 l 300 0 l 300 288 l 24 288 l 24 0 z "},"\"":{"ha":626,"x_min":24,"x_max":603,"o":"m 297 929 l 24 929 l 24 642 l 94 569 l 226 569 l 297 642 l 297 929 m 603 929 l 329 929 l 329 642 l 400 569 l 532 569 l 603 642 l 603 929 z "},"#":{"ha":774,"x_min":24,"x_max":750,"o":"m 750 479 l 750 767 l 679 767 l 679 929 l 403 929 l 403 0 l 679 0 l 679 163 l 750 163 l 750 450 l 679 450 l 679 479 l 750 479 m 371 929 l 94 929 l 94 767 l 24 767 l 24 479 l 94 479 l 94 450 l 24 450 l 24 163 l 94 163 l 94 0 l 371 0 l 371 929 z "},"$":{"ha":606,"x_min":24,"x_max":582,"o":"m 165 1017 l 165 929 l 94 929 l 24 858 l 24 392 l 94 319 l 306 319 l 306 288 l 24 288 l 24 0 l 165 0 l 165 -87 l 440 -87 l 440 0 l 511 0 l 582 71 l 582 539 l 511 610 l 300 610 l 300 642 l 582 642 l 582 929 l 440 929 l 440 1017 l 165 1017 z "},"%":{"ha":779,"x_min":24,"x_max":756,"o":"m 58 1035 l 24 1000 l 24 606 l 58 571 l 281 571 l 315 606 l 315 1000 l 281 1035 l 58 1035 m 499 358 l 464 324 l 464 -71 l 499 -106 l 721 -106 l 756 -71 l 756 324 l 721 358 l 499 358 m 601 215 l 618 215 l 618 38 l 601 38 l 601 215 m 161 892 l 178 892 l 178 714 l 161 714 l 161 892 m 599 535 l 599 929 l 350 929 l 350 610 l 181 393 l 181 0 l 429 0 l 429 319 l 599 535 z "},"&":{"ha":678,"x_min":24,"x_max":654,"o":"m 538 929 l 608 858 l 608 642 l 300 642 l 300 288 l 332 288 l 332 610 l 654 610 l 654 319 l 608 319 l 608 71 l 538 0 l 94 0 l 24 71 l 24 393 l 96 464 l 24 535 l 24 858 l 94 929 l 538 929 z "},"'":{"ha":324,"x_min":24,"x_max":300,"o":"m 300 929 l 24 929 l 24 642 l 94 569 l 229 569 l 300 642 l 300 929 z "},"(":{"ha":408,"x_min":24,"x_max":385,"o":"m 24 858 l 94 929 l 385 929 l 385 642 l 300 642 l 300 288 l 385 288 l 385 0 l 94 0 l 24 71 l 24 858 z "},")":{"ha":408,"x_min":24,"x_max":385,"o":"m 385 858 l 314 929 l 24 929 l 24 642 l 108 642 l 108 288 l 24 288 l 24 0 l 314 0 l 385 71 l 385 858 z "},"*":{"ha":353,"x_min":24,"x_max":329,"o":"m 203 671 l 172 725 l 149 674 l 38 767 l 81 811 l 24 825 l 64 957 l 113 929 l 107 988 l 247 988 l 235 928 l 290 953 l 329 822 l 274 811 l 314 764 l 203 671 z "},"+":{"ha":464,"x_min":24,"x_max":440,"o":"m 440 321 l 371 321 l 371 249 l 94 249 l 94 321 l 24 321 l 24 608 l 94 608 l 94 681 l 371 681 l 371 608 l 440 608 l 440 321 z "},",":{"ha":324,"x_min":24,"x_max":300,"o":"m 300 288 l 24 288 l 24 0 l 94 -72 l 229 -72 l 300 0 l 300 288 z "},"-":{"ha":331,"x_min":24,"x_max":307,"o":"m 307 321 l 24 321 l 24 608 l 307 608 l 307 321 z "},".":{"ha":324,"x_min":24,"x_max":300,"o":"m 24 288 l 24 0 l 300 0 l 300 288 l 24 288 z "},"/":{"ha":493,"x_min":24,"x_max":469,"o":"m 469 535 l 469 929 l 193 929 l 193 610 l 24 393 l 24 0 l 300 0 l 300 319 l 469 535 z "},":":{"ha":324,"x_min":24,"x_max":300,"o":"m 24 288 l 24 0 l 300 0 l 300 288 l 24 288 m 24 607 l 24 319 l 300 319 l 300 607 l 24 607 z "},";":{"ha":324,"x_min":24,"x_max":300,"o":"m 24 607 l 24 319 l 300 319 l 300 607 l 24 607 m 300 288 l 24 288 l 24 0 l 94 -72 l 229 -72 l 300 0 l 300 288 z "},"<":{"ha":265,"x_min":24,"x_max":242,"o":"m 24 579 l 242 688 l 242 497 l 154 464 l 242 432 l 242 242 l 24 350 l 24 579 z "},"=":{"ha":364,"x_min":24,"x_max":340,"o":"m 340 163 l 24 163 l 24 450 l 340 450 l 340 163 m 340 479 l 24 479 l 24 767 l 340 767 l 340 479 z "},">":{"ha":265,"x_min":24,"x_max":242,"o":"m 242 579 l 24 688 l 24 497 l 111 464 l 24 432 l 24 242 l 242 350 l 242 579 z "},"?":{"ha":606,"x_min":24,"x_max":582,"o":"m 582 858 l 582 392 l 511 319 l 79 319 l 79 539 l 150 610 l 306 610 l 306 642 l 24 642 l 24 858 l 94 929 l 511 929 l 582 858 m 356 288 l 356 0 l 79 0 l 79 288 l 356 288 z "},"@":{"ha":1042,"x_min":24,"x_max":1018,"o":"m 681 688 l 361 688 l 326 653 l 326 275 l 361 240 l 947 240 l 1018 311 l 1018 929 l 947 1000 l 94 1000 l 24 929 l 24 0 l 94 -71 l 947 -71 l 1018 0 l 1018 210 l 294 210 l 294 719 l 747 719 l 747 432 l 715 432 l 715 653 l 681 688 m 513 432 l 513 496 l 529 496 l 529 432 l 513 432 z "},"A":{"ha":632,"x_min":24,"x_max":608,"o":"m 24 610 l 24 71 l 94 0 l 608 0 l 608 858 l 538 929 l 94 929 l 24 858 l 24 642 l 332 642 l 332 288 l 300 288 l 300 610 l 24 610 z "},"B":{"ha":632,"x_min":24,"x_max":608,"o":"m 24 929 l 24 0 l 538 0 l 608 71 l 608 393 l 536 464 l 608 535 l 608 858 l 538 929 l 24 929 m 300 642 l 332 642 l 332 288 l 300 288 l 300 642 z "},"C":{"ha":632,"x_min":24,"x_max":608,"o":"m 608 858 l 608 481 l 332 481 l 332 642 l 300 642 l 300 288 l 332 288 l 332 449 l 608 449 l 608 71 l 538 0 l 94 0 l 24 71 l 24 858 l 94 929 l 538 929 l 608 858 z "},"D":{"ha":632,"x_min":24,"x_max":608,"o":"m 538 929 l 608 858 l 608 71 l 538 0 l 24 0 l 24 929 l 538 929 m 300 288 l 332 288 l 332 642 l 300 642 l 300 288 z "},"E":{"ha":632,"x_min":24,"x_max":608,"o":"m 94 929 l 24 858 l 24 71 l 94 0 l 608 0 l 608 288 l 300 288 l 300 642 l 332 642 l 332 319 l 608 319 l 608 858 l 538 929 l 94 929 z "},"F":{"ha":632,"x_min":24,"x_max":608,"o":"m 608 929 l 608 497 l 332 497 l 332 642 l 300 642 l 300 465 l 608 465 l 608 178 l 300 178 l 300 0 l 24 0 l 24 929 l 608 929 z "},"G":{"ha":632,"x_min":24,"x_max":608,"o":"m 356 63 l 304 0 l 94 0 l 24 71 l 24 858 l 94 929 l 608 929 l 608 642 l 300 642 l 300 288 l 332 288 l 332 610 l 608 610 l 608 0 l 356 0 l 356 63 z "},"H":{"ha":632,"x_min":24,"x_max":608,"o":"m 608 0 l 332 0 l 332 319 l 300 319 l 300 0 l 24 0 l 24 929 l 300 929 l 300 610 l 332 610 l 332 929 l 608 929 l 608 0 z "},"I":{"ha":593,"x_min":24,"x_max":569,"o":"m 24 642 l 158 642 l 158 288 l 24 288 l 24 0 l 569 0 l 569 288 l 435 288 l 435 642 l 569 642 l 569 929 l 24 929 l 24 642 z "},"J":{"ha":632,"x_min":24,"x_max":608,"o":"m 24 642 l 332 642 l 332 288 l 300 288 l 300 532 l 24 532 l 24 71 l 94 0 l 538 0 l 608 71 l 608 929 l 24 929 l 24 642 z "},"K":{"ha":632,"x_min":24,"x_max":608,"o":"m 608 929 l 332 929 l 332 610 l 300 610 l 300 929 l 24 929 l 24 0 l 300 0 l 300 319 l 332 319 l 332 0 l 608 0 l 608 393 l 538 464 l 608 535 l 608 929 z "},"L":{"ha":632,"x_min":24,"x_max":608,"o":"m 332 288 l 300 288 l 300 929 l 24 929 l 24 0 l 608 0 l 608 449 l 332 449 l 332 288 z "},"M":{"ha":938,"x_min":24,"x_max":914,"o":"m 606 642 l 638 642 l 638 0 l 914 0 l 914 858 l 843 929 l 24 929 l 24 0 l 300 0 l 300 642 l 332 642 l 332 0 l 606 0 l 606 642 z "},"N":{"ha":632,"x_min":24,"x_max":608,"o":"m 538 929 l 24 929 l 24 0 l 300 0 l 300 642 l 332 642 l 332 0 l 608 0 l 608 858 l 538 929 z "},"O":{"ha":632,"x_min":24,"x_max":608,"o":"m 538 929 l 608 858 l 608 71 l 538 0 l 94 0 l 24 71 l 24 858 l 94 929 l 538 929 m 300 288 l 332 288 l 332 642 l 300 642 l 300 288 z "},"P":{"ha":632,"x_min":24,"x_max":608,"o":"m 538 929 l 608 858 l 608 249 l 538 178 l 300 178 l 300 0 l 24 0 l 24 929 l 538 929 m 300 465 l 332 465 l 332 642 l 300 642 l 300 465 z "},"Q":{"ha":632,"x_min":24,"x_max":608,"o":"m 538 929 l 608 858 l 608 71 l 538 0 l 453 0 l 453 -101 l 178 -101 l 178 0 l 94 0 l 24 71 l 24 858 l 94 929 l 538 929 m 300 288 l 332 288 l 332 642 l 300 642 l 300 288 z "},"R":{"ha":632,"x_min":24,"x_max":608,"o":"m 538 929 l 24 929 l 24 0 l 300 0 l 300 176 l 332 176 l 332 0 l 608 0 l 608 249 l 538 319 l 608 390 l 608 858 l 538 929 m 300 465 l 300 642 l 332 642 l 332 465 l 300 465 z "},"S":{"ha":607,"x_min":24,"x_max":583,"o":"m 307 319 l 94 319 l 24 392 l 24 858 l 94 929 l 583 929 l 583 642 l 300 642 l 300 610 l 513 610 l 583 539 l 583 71 l 513 0 l 24 0 l 24 288 l 307 288 l 307 319 z "},"T":{"ha":613,"x_min":24,"x_max":589,"o":"m 24 642 l 24 929 l 589 929 l 589 642 l 444 642 l 444 0 l 168 0 l 168 642 l 24 642 z "},"U":{"ha":632,"x_min":24,"x_max":608,"o":"m 300 288 l 332 288 l 332 929 l 608 929 l 608 0 l 94 0 l 24 71 l 24 929 l 300 929 l 300 288 z "},"V":{"ha":632,"x_min":24,"x_max":608,"o":"m 300 288 l 332 288 l 332 929 l 608 929 l 608 176 l 432 0 l 200 0 l 24 176 l 24 929 l 300 929 l 300 288 z "},"W":{"ha":938,"x_min":24,"x_max":914,"o":"m 606 288 l 638 288 l 638 929 l 914 929 l 914 71 l 843 0 l 94 0 l 24 71 l 24 929 l 300 929 l 300 288 l 332 288 l 332 929 l 606 929 l 606 288 z "},"X":{"ha":632,"x_min":24,"x_max":608,"o":"m 608 535 l 608 929 l 332 929 l 332 610 l 300 610 l 300 929 l 24 929 l 24 535 l 94 464 l 24 393 l 24 0 l 300 0 l 300 319 l 332 319 l 332 0 l 608 0 l 608 393 l 538 464 l 608 535 z "},"Y":{"ha":632,"x_min":24,"x_max":608,"o":"m 608 71 l 538 0 l 24 0 l 24 288 l 332 288 l 332 319 l 94 319 l 24 392 l 24 929 l 300 929 l 300 610 l 332 610 l 332 929 l 608 929 l 608 71 z "},"Z":{"ha":606,"x_min":24,"x_max":582,"o":"m 582 400 l 582 929 l 24 929 l 24 642 l 306 642 l 24 531 l 24 0 l 582 0 l 582 288 l 300 288 l 582 400 z "},"[":{"ha":408,"x_min":24,"x_max":385,"o":"m 24 929 l 385 929 l 385 642 l 300 642 l 300 288 l 385 288 l 385 0 l 24 0 l 24 929 z "},"\\":{"ha":493,"x_min":24,"x_max":469,"o":"m 24 535 l 24 929 l 300 929 l 300 610 l 469 393 l 469 0 l 193 0 l 193 319 l 24 535 z "},"]":{"ha":408,"x_min":24,"x_max":385,"o":"m 385 929 l 24 929 l 24 642 l 108 642 l 108 288 l 24 288 l 24 0 l 385 0 l 385 929 z "},"^":{"ha":632,"x_min":24,"x_max":608,"o":"m 608 0 l 608 751 l 431 929 l 201 929 l 24 751 l 24 0 l 300 0 l 300 181 l 332 181 l 332 0 l 608 0 m 300 642 l 332 642 l 332 465 l 300 465 l 300 642 z "},"_":{"ha":467,"x_min":24,"x_max":443,"o":"m 24 0 l 443 0 l 443 288 l 24 288 l 24 0 z "},"`":{"ha":146,"x_min":-85,"x_max":122,"o":"m -85 1179 l 24 961 l 122 961 l 122 1179 l -85 1179 z "},"a":{"ha":632,"x_min":24,"x_max":608,"o":"m 332 465 l 300 465 l 300 642 l 332 642 l 332 465 m 608 858 l 538 929 l 94 929 l 24 858 l 24 0 l 300 0 l 300 178 l 332 178 l 332 0 l 608 0 l 608 858 z "},"b":{"ha":632,"x_min":24,"x_max":608,"o":"m 538 929 l 24 929 l 24 0 l 538 0 l 608 71 l 608 393 l 536 464 l 608 535 l 608 858 l 538 929 m 300 288 l 300 389 l 332 389 l 332 288 l 300 288 m 300 538 l 300 642 l 332 642 l 332 538 l 300 538 z "},"c":{"ha":632,"x_min":24,"x_max":608,"o":"m 608 858 l 608 481 l 332 481 l 332 642 l 300 642 l 300 288 l 608 288 l 608 71 l 538 0 l 94 0 l 24 71 l 24 858 l 94 929 l 538 929 l 608 858 z "},"d":{"ha":632,"x_min":24,"x_max":608,"o":"m 538 929 l 608 858 l 608 71 l 538 0 l 24 0 l 24 929 l 538 929 m 300 288 l 332 288 l 332 642 l 300 642 l 300 288 z "},"e":{"ha":601,"x_min":24,"x_max":578,"o":"m 578 319 l 300 319 l 300 288 l 578 288 l 578 0 l 24 0 l 24 929 l 578 929 l 578 642 l 300 642 l 300 610 l 578 610 l 578 319 z "},"f":{"ha":601,"x_min":24,"x_max":578,"o":"m 578 319 l 300 319 l 300 0 l 24 0 l 24 929 l 578 929 l 578 642 l 300 642 l 300 610 l 578 610 l 578 319 z "},"g":{"ha":632,"x_min":24,"x_max":608,"o":"m 356 63 l 304 0 l 94 0 l 24 71 l 24 858 l 94 929 l 538 929 l 608 858 l 608 642 l 300 642 l 300 288 l 332 288 l 332 610 l 608 610 l 608 0 l 356 0 l 356 63 z "},"h":{"ha":632,"x_min":24,"x_max":608,"o":"m 608 0 l 332 0 l 332 319 l 300 319 l 300 0 l 24 0 l 24 929 l 300 929 l 300 610 l 332 610 l 332 929 l 608 929 l 608 0 z "},"i":{"ha":324,"x_min":24,"x_max":300,"o":"m 300 929 l 300 0 l 24 0 l 24 929 l 300 929 z "},"j":{"ha":632,"x_min":24,"x_max":608,"o":"m 300 288 l 332 288 l 332 929 l 608 929 l 608 71 l 538 0 l 94 0 l 24 71 l 24 449 l 300 449 l 300 288 z "},"k":{"ha":632,"x_min":24,"x_max":608,"o":"m 608 929 l 332 929 l 332 610 l 300 610 l 300 929 l 24 929 l 24 0 l 300 0 l 300 319 l 332 319 l 332 0 l 608 0 l 608 393 l 538 464 l 608 535 l 608 929 z "},"l":{"ha":589,"x_min":24,"x_max":565,"o":"m 300 929 l 24 929 l 24 0 l 565 0 l 565 288 l 300 288 l 300 929 z "},"m":{"ha":853,"x_min":24,"x_max":829,"o":"m 533 929 l 426 594 l 319 929 l 24 929 l 24 0 l 299 0 l 299 196 l 363 0 l 490 0 l 554 196 l 554 0 l 829 0 l 829 929 l 533 929 z "},"n":{"ha":635,"x_min":24,"x_max":611,"o":"m 611 929 l 611 0 l 365 0 l 299 196 l 299 0 l 24 0 l 24 929 l 267 929 l 333 739 l 333 929 l 611 929 z "},"o":{"ha":632,"x_min":24,"x_max":608,"o":"m 300 642 l 332 642 l 332 288 l 300 288 l 300 642 m 94 929 l 24 858 l 24 71 l 94 0 l 538 0 l 608 71 l 608 858 l 538 929 l 94 929 z "},"p":{"ha":632,"x_min":24,"x_max":608,"o":"m 538 929 l 608 858 l 608 249 l 538 178 l 300 178 l 300 0 l 24 0 l 24 929 l 538 929 m 300 465 l 332 465 l 332 642 l 300 642 l 300 465 z "},"q":{"ha":632,"x_min":24,"x_max":608,"o":"m 538 929 l 608 858 l 608 71 l 538 0 l 453 0 l 453 -101 l 178 -101 l 178 0 l 94 0 l 24 71 l 24 858 l 94 929 l 538 929 m 300 288 l 332 288 l 332 642 l 300 642 l 300 288 z "},"r":{"ha":632,"x_min":24,"x_max":617,"o":"m 538 929 l 24 929 l 24 0 l 300 0 l 300 179 l 347 0 l 617 0 l 564 208 l 608 249 l 608 858 l 538 929 m 300 465 l 300 642 l 332 642 l 332 465 l 300 465 z "},"s":{"ha":607,"x_min":24,"x_max":583,"o":"m 307 319 l 94 319 l 24 392 l 24 858 l 94 929 l 513 929 l 583 858 l 583 642 l 300 642 l 300 610 l 513 610 l 583 539 l 583 71 l 513 0 l 94 0 l 24 71 l 24 288 l 307 288 l 307 319 z "},"t":{"ha":613,"x_min":24,"x_max":589,"o":"m 24 642 l 24 929 l 589 929 l 589 642 l 444 642 l 444 0 l 168 0 l 168 642 l 24 642 z "},"u":{"ha":632,"x_min":24,"x_max":608,"o":"m 300 288 l 332 288 l 332 929 l 608 929 l 608 71 l 538 0 l 94 0 l 24 71 l 24 929 l 300 929 l 300 288 z "},"v":{"ha":632,"x_min":24,"x_max":608,"o":"m 300 288 l 332 288 l 332 929 l 608 929 l 608 176 l 432 0 l 200 0 l 24 176 l 24 929 l 300 929 l 300 288 z "},"w":{"ha":938,"x_min":24,"x_max":914,"o":"m 300 288 l 300 929 l 24 929 l 24 176 l 200 0 l 428 0 l 468 56 l 510 0 l 738 0 l 914 176 l 914 929 l 638 929 l 638 288 l 606 288 l 606 929 l 332 929 l 332 288 l 300 288 z "},"x":{"ha":632,"x_min":24,"x_max":608,"o":"m 608 535 l 608 929 l 332 929 l 332 610 l 300 610 l 300 929 l 24 929 l 24 535 l 94 464 l 24 393 l 24 0 l 300 0 l 300 319 l 332 319 l 332 0 l 608 0 l 608 393 l 538 464 l 608 535 z "},"y":{"ha":632,"x_min":24,"x_max":608,"o":"m 608 71 l 538 0 l 94 0 l 24 71 l 24 288 l 332 288 l 332 319 l 94 319 l 24 392 l 24 929 l 300 929 l 300 610 l 332 610 l 332 929 l 608 929 l 608 71 z "},"z":{"ha":607,"x_min":24,"x_max":583,"o":"m 300 319 l 513 319 l 583 392 l 583 929 l 24 929 l 24 642 l 307 642 l 307 610 l 94 610 l 24 539 l 24 0 l 583 0 l 583 288 l 300 288 l 300 319 z "},"{":{"ha":601,"x_min":24,"x_max":578,"o":"m 24 858 l 94 929 l 578 929 l 578 642 l 300 642 l 300 288 l 578 288 l 578 0 l 94 0 l 24 71 l 24 858 z "},"|":{"ha":322,"x_min":24,"x_max":299,"o":"m 24 1031 l 299 1031 l 299 -101 l 24 -101 l 24 1031 z "},"}":{"ha":606,"x_min":24,"x_max":582,"o":"m 24 400 l 24 858 l 94 929 l 511 929 l 582 858 l 582 642 l 300 642 l 582 531 l 582 71 l 511 0 l 94 0 l 24 71 l 24 288 l 306 288 l 24 400 z "},"~":{"ha":632,"x_min":24,"x_max":608,"o":"m 331 929 l 608 929 l 608 0 l 332 0 l 332 247 l 300 319 l 300 0 l 24 0 l 24 929 l 267 929 l 331 788 l 331 929 z "},"":{"ha":146,"x_min":0,"x_max":0,"o":""},"€":{"ha":703,"x_min":24,"x_max":679,"o":"m 679 858 l 608 929 l 165 929 l 94 858 l 94 767 l 24 767 l 24 479 l 94 479 l 94 450 l 24 450 l 24 163 l 94 163 l 94 71 l 165 0 l 608 0 l 679 71 l 679 449 l 403 449 l 403 288 l 371 288 l 371 642 l 403 642 l 403 481 l 679 481 l 679 858 z "},"‚":{"ha":324,"x_min":24,"x_max":300,"o":"m 300 288 l 24 288 l 24 0 l 94 -72 l 229 -72 l 300 0 l 300 288 z "},"ƒ":{"ha":603,"x_min":24,"x_max":579,"o":"m 24 0 l 24 858 l 94 929 l 579 929 l 579 642 l 300 642 l 300 610 l 579 610 l 579 319 l 300 319 l 300 0 l 24 0 z "},"„":{"ha":632,"x_min":24,"x_max":608,"o":"m 300 288 l 24 288 l 24 0 l 94 -72 l 229 -72 l 300 0 l 300 288 m 608 288 l 332 288 l 332 0 l 403 -72 l 538 -72 l 608 0 l 608 288 z "},"…":{"ha":940,"x_min":24,"x_max":917,"o":"m 332 288 l 332 0 l 608 0 l 608 288 l 332 288 m 24 288 l 24 0 l 300 0 l 300 288 l 24 288 m 640 288 l 640 0 l 917 0 l 917 288 l 640 288 z "},"†":{"ha":503,"x_min":24,"x_max":479,"o":"m 479 479 l 479 767 l 390 767 l 390 929 l 114 929 l 114 767 l 24 767 l 24 479 l 114 479 l 114 0 l 390 0 l 390 479 l 479 479 z "},"‡":{"ha":503,"x_min":24,"x_max":479,"o":"m 479 479 l 479 767 l 390 767 l 390 929 l 114 929 l 114 767 l 24 767 l 24 479 l 114 479 l 114 450 l 24 450 l 24 163 l 114 163 l 114 0 l 390 0 l 390 163 l 479 163 l 479 450 l 390 450 l 390 479 l 479 479 z "},"ˆ":{"ha":493,"x_min":24,"x_max":469,"o":"m 132 1179 l 24 961 l 214 961 l 247 1051 l 279 961 l 469 961 l 361 1179 l 132 1179 z "},"‰":{"ha":1099,"x_min":24,"x_max":1075,"o":"m 58 1035 l 24 1000 l 24 606 l 58 571 l 281 571 l 315 606 l 315 1000 l 281 1035 l 58 1035 m 601 215 l 618 215 l 618 38 l 601 38 l 601 215 m 161 892 l 178 892 l 178 714 l 161 714 l 161 892 m 599 535 l 599 929 l 350 929 l 350 610 l 181 393 l 181 0 l 429 0 l 429 319 l 599 535 m 499 358 l 464 324 l 464 -71 l 499 -106 l 721 -106 l 756 -71 l 756 324 l 721 358 l 499 358 m 921 215 l 938 215 l 938 38 l 921 38 l 921 215 m 818 358 l 783 324 l 783 -71 l 818 -106 l 1040 -106 l 1075 -71 l 1075 324 l 1040 358 l 818 358 z "},"Š":{"ha":606,"x_min":24,"x_max":582,"o":"m 525 1179 l 417 961 l 188 961 l 79 1179 l 269 1179 l 301 1089 l 335 1179 l 525 1179 m 306 319 l 94 319 l 24 392 l 24 858 l 94 929 l 582 929 l 582 642 l 300 642 l 300 610 l 511 610 l 582 539 l 582 71 l 511 0 l 24 0 l 24 288 l 306 288 l 306 319 z "},"‹":{"ha":265,"x_min":24,"x_max":242,"o":"m 24 579 l 242 688 l 242 497 l 154 464 l 242 432 l 242 242 l 24 350 l 24 579 z "},"Œ":{"ha":940,"x_min":24,"x_max":917,"o":"m 846 929 l 94 929 l 24 858 l 24 71 l 94 0 l 917 0 l 917 288 l 608 288 l 608 642 l 640 642 l 640 319 l 917 319 l 917 858 l 846 929 m 300 288 l 300 642 l 332 642 l 332 288 l 300 288 z "},"Ž":{"ha":606,"x_min":24,"x_max":582,"o":"m 417 961 l 525 1179 l 335 1179 l 301 1089 l 269 1179 l 79 1179 l 188 961 l 417 961 m 582 392 l 582 929 l 24 929 l 24 642 l 306 642 l 24 539 l 24 0 l 582 0 l 582 288 l 300 288 l 582 392 z "},"‘":{"ha":324,"x_min":24,"x_max":300,"o":"m 300 929 l 24 929 l 24 642 l 94 569 l 229 569 l 300 642 l 300 929 z "},"’":{"ha":324,"x_min":24,"x_max":300,"o":"m 300 569 l 24 569 l 24 857 l 94 929 l 229 929 l 300 857 l 300 569 z "},"“":{"ha":626,"x_min":24,"x_max":603,"o":"m 297 569 l 24 569 l 24 857 l 94 929 l 226 929 l 297 857 l 297 569 m 603 569 l 329 569 l 329 857 l 400 929 l 532 929 l 603 857 l 603 569 z "},"”":{"ha":626,"x_min":24,"x_max":603,"o":"m 297 929 l 24 929 l 24 642 l 94 569 l 226 569 l 297 642 l 297 929 m 603 929 l 329 929 l 329 642 l 400 569 l 532 569 l 603 642 l 603 929 z "},"•":{"ha":632,"x_min":24,"x_max":608,"o":"m 538 929 l 608 858 l 608 71 l 538 0 l 94 0 l 24 71 l 24 858 l 94 929 l 538 929 z "},"–":{"ha":329,"x_min":24,"x_max":306,"o":"m 306 319 l 24 319 l 24 610 l 306 610 l 306 319 z "},"—":{"ha":446,"x_min":24,"x_max":422,"o":"m 422 319 l 24 319 l 24 610 l 422 610 l 422 319 z "},"˜":{"ha":542,"x_min":24,"x_max":626,"o":"m 371 1179 l 132 1179 l 24 961 l 214 961 l 247 1050 l 279 961 l 518 961 l 626 1179 l 436 1179 l 403 1089 l 371 1179 z "},"™":{"ha":415,"x_min":17,"x_max":392,"o":"m 82 950 l 82 796 l 117 796 l 117 950 l 182 950 l 182 986 l 17 986 l 17 950 l 82 950 m 207 796 l 231 796 l 231 919 l 236 925 l 281 807 q 288 797 283 799 q 297 796 292 796 q 309 797 307 796 q 317 807 311 799 l 360 924 l 363 918 l 363 796 l 392 796 l 392 988 l 379 988 q 357 983 367 992 q 338 958 347 975 q 319 915 329 940 q 297 860 310 889 q 295 869 296 867 q 294 869 294 872 q 278 924 288 890 l 274 933 q 250 968 267 950 q 225 986 233 986 l 207 986 l 207 796 z "},"š":{"ha":606,"x_min":24,"x_max":582,"o":"m 417 961 l 525 1179 l 335 1179 l 301 1089 l 269 1179 l 79 1179 l 188 961 l 417 961 m 94 319 l 306 319 l 306 288 l 24 288 l 24 71 l 94 0 l 511 0 l 582 71 l 582 539 l 511 610 l 300 610 l 300 642 l 582 642 l 582 858 l 511 929 l 94 929 l 24 858 l 24 392 l 94 319 z "},"›":{"ha":265,"x_min":24,"x_max":242,"o":"m 242 579 l 24 688 l 24 497 l 111 464 l 24 432 l 24 242 l 242 350 l 242 579 z "},"œ":{"ha":914,"x_min":24,"x_max":890,"o":"m 890 319 l 890 610 l 608 610 l 608 642 l 890 642 l 890 929 l 94 929 l 24 858 l 24 71 l 94 0 l 890 0 l 890 288 l 608 288 l 608 319 l 890 319 m 332 288 l 300 288 l 300 642 l 332 642 l 332 288 z "},"ž":{"ha":606,"x_min":24,"x_max":582,"o":"m 417 961 l 525 1179 l 335 1179 l 301 1089 l 269 1179 l 79 1179 l 188 961 l 417 961 m 300 319 l 511 319 l 582 392 l 582 929 l 24 929 l 24 642 l 306 642 l 306 610 l 94 610 l 24 539 l 24 0 l 582 0 l 582 288 l 300 288 l 300 319 z "},"Ÿ":{"ha":632,"x_min":24,"x_max":608,"o":"m 539 1179 l 539 961 l 332 961 l 332 1179 l 539 1179 m 300 1179 l 300 961 l 93 961 l 93 1179 l 300 1179 m 608 71 l 538 0 l 24 0 l 24 288 l 332 288 l 332 319 l 94 319 l 24 392 l 24 929 l 300 929 l 300 610 l 332 610 l 332 929 l 608 929 l 608 71 z "}," ":{"ha":276,"x_min":0,"x_max":0,"o":""},"¡":{"ha":324,"x_min":24,"x_max":300,"o":"m 300 610 l 300 0 l 24 0 l 24 610 l 300 610 m 24 929 l 300 929 l 300 642 l 24 642 l 24 929 z "},"¢":{"ha":632,"x_min":24,"x_max":608,"o":"m 608 772 l 538 843 l 453 843 l 453 931 l 178 931 l 178 843 l 94 843 l 24 772 l 24 158 l 94 88 l 178 88 l 178 0 l 453 0 l 453 88 l 538 88 l 608 158 l 608 449 l 332 449 l 332 375 l 300 375 l 300 642 l 332 642 l 332 481 l 608 481 l 608 772 z "},"£":{"ha":675,"x_min":24,"x_max":651,"o":"m 651 0 l 651 288 l 369 288 l 369 319 l 549 319 l 549 610 l 369 610 l 369 642 l 447 642 l 447 929 l 164 929 l 93 858 l 93 610 l 24 610 l 24 321 l 93 321 l 93 288 l 24 288 l 24 0 l 651 0 z "},"¤":{"ha":632,"x_min":24,"x_max":608,"o":"m 608 535 l 608 929 l 332 929 l 332 814 l 300 814 l 300 929 l 24 929 l 24 535 l 94 464 l 24 393 l 24 0 l 300 0 l 300 117 l 332 117 l 332 0 l 608 0 l 608 393 l 538 464 l 608 535 m 303 597 l 326 597 l 326 332 l 303 332 l 303 597 z "},"¥":{"ha":632,"x_min":24,"x_max":608,"o":"m 300 813 l 300 929 l 24 929 l 24 596 l 94 525 l 178 525 l 178 497 l 67 497 l 67 232 l 178 232 l 178 203 l 67 203 l 67 -62 l 178 -62 l 178 -106 l 454 -106 l 454 -62 l 564 -62 l 564 203 l 454 203 l 454 232 l 564 232 l 564 497 l 454 497 l 454 525 l 538 525 l 608 596 l 608 929 l 332 929 l 332 813 l 300 813 z "},"¦":{"ha":322,"x_min":24,"x_max":299,"o":"m 299 1031 l 299 479 l 24 479 l 24 1031 l 299 1031 m 299 447 l 299 -101 l 24 -101 l 24 447 l 299 447 z "},"§":{"ha":632,"x_min":24,"x_max":608,"o":"m 608 535 l 608 929 l 332 929 l 332 814 l 149 814 l 96 760 l 96 464 l 24 393 l 24 0 l 300 0 l 300 117 l 481 117 l 535 169 l 535 461 l 608 535 m 303 597 l 326 597 l 326 332 l 303 332 l 303 597 z "},"¨":{"ha":493,"x_min":24,"x_max":469,"o":"m 24 1179 l 24 961 l 231 961 l 231 1179 l 24 1179 m 263 1179 l 263 961 l 469 961 l 469 1179 l 263 1179 z "},"©":{"ha":361,"x_min":24,"x_max":338,"o":"m 181 988 q 219 982 200 988 q 257 967 238 976 q 290 941 276 956 q 317 908 304 926 q 338 831 338 872 q 317 753 338 788 q 258 694 297 713 q 181 674 200 674 q 120 686 149 674 q 70 720 92 699 q 36 770 49 742 q 24 831 24 799 q 29 870 24 851 q 43 908 35 889 q 104 967 60 943 q 140 982 121 976 q 181 988 160 988 m 181 957 q 133 948 156 958 q 92 919 110 938 q 63 878 74 901 q 54 831 53 854 q 71 769 54 799 q 117 722 86 746 q 181 706 156 706 q 243 722 203 706 q 269 744 258 732 q 288 769 281 756 q 304 831 304 804 q 288 893 304 853 q 241 939 274 921 q 181 957 208 957 m 226 811 l 260 800 q 181 739 240 739 q 118 763 140 739 q 96 831 96 788 q 119 897 96 874 q 182 921 142 921 q 256 867 240 921 l 226 860 q 182 892 210 892 q 129 831 129 892 q 179 771 129 771 q 226 811 215 771 z "},"ª":{"ha":632,"x_min":24,"x_max":608,"o":"m 24 0 l 300 0 l 300 178 l 332 178 l 332 0 l 608 0 l 608 858 l 538 929 l 24 929 l 24 0 m 300 642 l 332 642 l 332 465 l 300 465 l 300 642 z "},"«":{"ha":515,"x_min":24,"x_max":492,"o":"m 24 579 l 242 688 l 242 497 l 154 464 l 242 432 l 242 242 l 24 350 l 24 579 m 274 579 l 492 688 l 492 497 l 404 464 l 492 432 l 492 242 l 274 350 l 274 579 z "},"¬":{"ha":394,"x_min":24,"x_max":371,"o":"m 371 610 l 371 249 l 94 249 l 94 319 l 24 319 l 24 610 l 371 610 z "},"­":{"ha":253,"x_min":24,"x_max":229,"o":"m 229 319 l 24 319 l 24 610 l 229 610 l 229 319 z "},"®":{"ha":363,"x_min":24,"x_max":339,"o":"m 181 988 q 219 982 200 988 q 257 967 238 976 q 317 908 299 943 q 339 831 339 874 q 317 753 339 783 q 258 693 299 717 q 211 678 231 682 q 181 674 192 674 q 103 693 139 674 q 69 719 83 706 q 43 753 54 733 q 24 831 24 789 q 29 870 24 851 q 43 908 35 889 q 104 967 61 943 q 142 982 124 976 q 181 988 160 988 m 181 956 q 119 940 149 956 q 71 893 90 925 q 59 858 64 874 q 54 831 54 842 q 59 803 54 819 q 71 768 64 788 q 117 722 89 740 q 181 706 147 706 q 211 708 196 706 q 243 722 226 711 q 265 740 254 728 q 288 768 276 751 q 306 831 306 799 q 288 893 306 863 q 242 939 272 919 q 210 952 225 949 q 181 956 196 956 m 111 743 l 111 914 l 169 914 q 198 913 188 914 q 214 910 208 913 l 235 894 q 243 865 243 883 q 238 835 243 847 q 213 818 232 822 q 224 800 217 815 q 228 790 226 796 q 235 778 231 785 l 258 743 l 218 743 l 203 768 q 175 807 181 806 q 156 813 171 813 l 143 813 l 143 743 l 111 743 m 169 885 l 143 885 l 143 839 l 172 839 q 202 844 194 839 q 210 863 210 850 q 199 882 210 875 q 169 885 196 885 z "},"¯":{"ha":467,"x_min":24,"x_max":443,"o":"m 24 642 l 443 642 l 443 929 l 24 929 l 24 642 z "},"°":{"ha":254,"x_min":24,"x_max":231,"o":"m 24 1179 l 24 961 l 231 961 l 231 1179 l 24 1179 z "},"±":{"ha":464,"x_min":24,"x_max":440,"o":"m 440 393 l 371 393 l 371 322 l 94 322 l 94 393 l 24 393 l 24 683 l 94 683 l 94 754 l 371 754 l 371 683 l 440 683 l 440 393 m 440 0 l 24 0 l 24 290 l 440 290 l 440 0 z "},"²":{"ha":326,"x_min":24,"x_max":303,"o":"m 161 683 l 267 683 l 303 719 l 303 953 l 267 988 l 58 988 l 24 953 l 24 844 l 164 844 l 164 828 l 58 828 l 24 793 l 24 524 l 303 524 l 303 667 l 161 667 l 161 683 z "},"³":{"ha":326,"x_min":24,"x_max":303,"o":"m 267 756 l 303 790 l 303 953 l 267 988 l 24 988 l 24 844 l 164 844 l 164 828 l 24 828 l 24 683 l 164 683 l 164 667 l 24 667 l 24 524 l 267 524 l 303 558 l 303 719 l 267 756 z "},"´":{"ha":146,"x_min":24,"x_max":231,"o":"m 24 1179 l 24 961 l 122 961 l 231 1179 l 24 1179 z "},"µ":{"ha":632,"x_min":24,"x_max":608,"o":"m 332 288 l 332 929 l 608 929 l 608 71 l 538 0 l 299 0 l 299 -101 l 24 -101 l 24 929 l 300 929 l 300 288 l 332 288 z "},"¶":{"ha":749,"x_min":24,"x_max":725,"o":"m 449 642 l 449 -72 l 725 -72 l 725 929 l 94 929 l 24 858 l 24 249 l 94 178 l 140 178 l 140 -72 l 417 -72 l 417 642 l 449 642 z "},"·":{"ha":324,"x_min":24,"x_max":300,"o":"m 24 607 l 24 319 l 300 319 l 300 607 l 24 607 z "},"¸":{"ha":324,"x_min":24,"x_max":300,"o":"m 300 3 l 24 3 l 24 -72 l 229 -72 l 300 -1 l 300 3 z "},"¹":{"ha":254,"x_min":24,"x_max":231,"o":"m 24 844 l 93 844 l 93 524 l 231 524 l 231 988 l 24 988 l 24 844 z "},"º":{"ha":339,"x_min":24,"x_max":315,"o":"m 161 844 l 178 844 l 178 667 l 161 667 l 161 844 m 58 988 l 24 953 l 24 558 l 58 524 l 281 524 l 315 558 l 315 953 l 281 988 l 58 988 z "},"»":{"ha":515,"x_min":24,"x_max":492,"o":"m 492 579 l 274 688 l 274 497 l 361 464 l 274 432 l 274 242 l 492 350 l 492 579 m 242 579 l 24 688 l 24 497 l 111 464 l 24 432 l 24 242 l 242 350 l 242 579 z "},"¼":{"ha":1525,"x_min":24,"x_max":1501,"o":"m 1501 499 l 1499 497 l 1479 458 l 1393 458 l 1449 389 l 1453 376 l 1453 369 q 1424 331 1453 343 l 1326 351 l 1314 243 q 1278 224 1307 224 q 1235 231 1254 224 q 1188 254 1215 239 l 1176 257 l 1082 160 l 1033 151 l 972 204 l 786 115 l 756 126 l 756 178 l 511 143 l 482 160 l 493 204 l 240 225 l 240 257 l 269 288 l 111 315 q 82 351 82 315 l 143 396 l 35 443 l 24 486 l 132 503 l 76 569 l 82 622 l 196 611 q 243 739 196 739 l 249 739 l 356 706 q 420 776 394 753 q 474 811 446 800 l 563 760 l 740 842 l 775 811 l 771 785 l 775 775 l 972 811 l 1042 804 l 1033 750 l 1264 750 l 1285 731 q 1247 681 1285 682 l 1444 631 l 1444 619 q 1372 569 1444 578 q 1501 499 1501 524 m 1469 486 l 1461 503 l 1304 578 l 1401 604 l 1414 604 l 1401 622 l 1176 668 l 1254 722 l 992 722 l 1011 785 l 756 750 l 749 804 l 728 811 l 551 731 l 474 785 l 369 681 q 344 675 360 675 q 249 713 307 675 l 229 585 l 106 596 l 111 557 l 179 476 l 54 469 l 221 389 l 111 343 l 349 293 l 269 243 l 540 233 l 511 172 l 756 213 l 786 178 l 775 143 l 972 233 l 1061 178 l 1160 288 l 1285 250 l 1294 378 l 1424 358 q 1426 367 1425 365 q 1428 368 1428 368 q 1344 476 1428 393 l 1469 486 m 1279 551 l 1261 433 l 1232 436 l 1238 558 l 1279 551 m 1264 383 l 1238 358 l 1217 378 l 1238 394 l 1264 383 m 1190 393 q 1088 472 1147 393 l 1088 394 l 1057 392 l 1057 551 l 1154 446 l 1160 558 l 1190 551 l 1190 393 m 1028 394 l 1006 399 q 963 436 986 436 q 921 399 943 436 l 883 399 q 956 557 899 479 q 979 563 957 563 q 1028 511 1010 563 l 1028 394 m 867 558 l 857 401 l 815 392 l 833 551 l 867 558 m 782 386 q 678 464 743 386 l 678 389 l 647 383 l 647 544 l 749 443 l 756 551 l 782 544 l 782 386 m 628 499 q 563 386 613 386 q 547 384 553 385 q 533 383 540 383 q 474 408 488 383 q 538 551 474 513 l 558 551 q 628 499 615 551 m 461 556 l 458 517 q 451 520 453 519 q 449 521 449 521 q 439 522 449 522 q 393 499 421 522 q 368 433 368 469 q 404 401 368 401 q 438 406 429 401 l 439 379 q 418 374 424 376 q 404 371 413 371 q 338 443 354 371 q 335 453 335 446 l 335 464 q 461 556 335 539 m 317 551 l 306 396 l 269 383 l 288 547 l 317 551 m 996 472 l 974 525 l 942 472 l 996 472 m 593 475 q 592 483 593 478 q 592 494 592 488 q 558 514 576 514 q 510 464 528 514 l 510 453 q 536 414 510 414 q 582 428 556 414 q 591 451 589 442 q 593 475 593 460 z "},"½":{"ha":706,"x_min":24,"x_max":682,"o":"m 538 535 l 538 929 l 289 929 l 289 610 l 119 393 l 119 0 l 368 0 l 368 319 l 538 535 m 540 54 l 646 54 l 682 90 l 682 324 l 646 358 l 438 358 l 403 324 l 403 215 l 543 215 l 543 199 l 438 199 l 403 164 l 403 -106 l 682 -106 l 682 38 l 540 38 l 540 54 m 24 892 l 93 892 l 93 571 l 231 571 l 231 1035 l 24 1035 l 24 892 z "},"¾":{"ha":1463,"x_min":24,"x_max":1439,"o":"m 1439 486 l 1431 503 l 1274 578 l 1371 604 l 1383 604 l 1371 622 l 1146 668 l 1224 722 l 961 722 l 981 785 l 725 750 l 718 804 l 697 811 l 521 731 l 443 785 l 339 681 q 314 675 329 675 q 218 713 276 675 l 199 585 l 75 596 l 81 557 l 149 476 l 24 469 l 190 389 l 81 343 l 318 293 l 239 243 l 510 233 l 481 172 l 725 213 l 756 178 l 744 143 l 942 233 l 1031 178 l 1129 288 l 1254 250 l 1264 378 l 1393 358 q 1396 367 1394 365 q 1397 368 1397 368 q 1314 476 1397 393 l 1439 486 m 1249 551 l 1231 433 l 1201 436 l 1207 558 l 1249 551 m 1233 383 l 1207 358 l 1186 378 l 1207 394 l 1233 383 m 1160 393 q 1057 472 1117 393 l 1057 394 l 1026 392 l 1026 551 l 1124 446 l 1129 558 l 1160 551 l 1160 393 m 997 394 l 975 399 q 932 436 956 436 q 890 399 913 436 l 853 399 q 925 557 868 479 q 949 563 926 563 q 997 511 979 563 l 997 394 m 836 558 l 826 401 l 785 392 l 803 551 l 836 558 m 751 386 q 647 464 713 386 l 647 389 l 617 383 l 617 544 l 718 443 l 725 551 l 751 544 l 751 386 m 597 499 q 532 386 582 386 q 516 384 522 385 q 503 383 510 383 q 443 408 457 383 q 507 551 443 513 l 528 551 q 597 499 585 551 m 431 556 l 428 517 q 420 520 422 519 q 418 521 418 521 q 408 522 418 522 q 363 499 390 522 q 338 433 338 469 q 374 401 338 401 q 407 406 399 401 l 408 379 q 388 374 393 376 q 374 371 382 371 q 307 443 324 371 q 304 453 304 446 l 304 464 q 431 556 304 539 m 286 551 l 275 396 l 239 383 l 257 547 l 286 551 m 965 472 l 943 525 l 911 472 l 965 472 m 563 475 q 562 483 563 478 q 561 494 561 488 q 528 514 546 514 q 479 464 497 514 l 479 453 q 506 414 479 414 q 551 428 525 414 q 560 451 558 442 q 563 475 563 460 z "},"¿":{"ha":606,"x_min":24,"x_max":582,"o":"m 24 71 l 24 538 l 94 610 l 526 610 l 526 390 l 456 319 l 300 319 l 300 288 l 582 288 l 582 71 l 511 0 l 94 0 l 24 71 m 250 642 l 250 929 l 526 929 l 526 642 l 250 642 z "},"À":{"ha":632,"x_min":24,"x_max":608,"o":"m 171 1179 l 279 961 l 378 961 l 378 1179 l 171 1179 m 24 610 l 24 71 l 94 0 l 608 0 l 608 858 l 538 929 l 24 929 l 24 642 l 332 642 l 332 288 l 300 288 l 300 610 l 24 610 z "},"Á":{"ha":632,"x_min":24,"x_max":608,"o":"m 249 1179 l 249 961 l 347 961 l 456 1179 l 249 1179 m 24 610 l 24 71 l 94 0 l 608 0 l 608 858 l 538 929 l 94 929 l 24 858 l 24 642 l 332 642 l 332 288 l 300 288 l 300 610 l 24 610 z "},"Â":{"ha":632,"x_min":24,"x_max":608,"o":"m 201 1179 l 93 961 l 283 961 l 317 1051 l 349 961 l 539 961 l 431 1179 l 201 1179 m 24 610 l 24 71 l 94 0 l 608 0 l 608 858 l 538 929 l 94 929 l 24 858 l 24 642 l 332 642 l 332 288 l 300 288 l 300 610 l 24 610 z "},"Ã":{"ha":632,"x_min":14,"x_max":617,"o":"m 361 1179 l 122 1179 l 14 961 l 204 961 l 238 1050 l 269 961 l 508 961 l 617 1179 l 426 1179 l 393 1089 l 361 1179 m 24 610 l 24 71 l 94 0 l 608 0 l 608 858 l 538 929 l 94 929 l 24 858 l 24 642 l 332 642 l 332 288 l 300 288 l 300 610 l 24 610 z "},"Ä":{"ha":632,"x_min":24,"x_max":608,"o":"m 93 1179 l 93 961 l 300 961 l 300 1179 l 93 1179 m 332 1179 l 332 961 l 539 961 l 539 1179 l 332 1179 m 24 610 l 24 71 l 94 0 l 608 0 l 608 858 l 538 929 l 94 929 l 24 858 l 24 642 l 332 642 l 332 288 l 300 288 l 300 610 l 24 610 z "},"Å":{"ha":632,"x_min":24,"x_max":608,"o":"m 213 1179 l 213 961 l 419 961 l 419 1179 l 213 1179 m 24 610 l 24 71 l 94 0 l 608 0 l 608 858 l 538 929 l 94 929 l 24 858 l 24 642 l 332 642 l 332 288 l 300 288 l 300 610 l 24 610 z "},"Æ":{"ha":940,"x_min":24,"x_max":917,"o":"m 24 71 l 94 0 l 917 0 l 917 288 l 608 288 l 608 642 l 640 642 l 640 319 l 917 319 l 917 858 l 846 929 l 94 929 l 24 858 l 24 642 l 332 642 l 332 288 l 300 288 l 300 610 l 24 610 l 24 71 z "},"Ç":{"ha":632,"x_min":24,"x_max":608,"o":"m 608 481 l 332 481 l 332 642 l 300 642 l 300 288 l 332 288 l 332 449 l 608 449 l 608 71 l 538 0 l 454 0 l 383 -72 l 178 -72 l 178 0 l 94 0 l 24 71 l 24 858 l 94 929 l 538 929 l 608 858 l 608 481 z "},"È":{"ha":632,"x_min":24,"x_max":608,"o":"m 171 1179 l 279 961 l 378 961 l 378 1179 l 171 1179 m 94 929 l 24 858 l 24 71 l 94 0 l 608 0 l 608 288 l 300 288 l 300 642 l 332 642 l 332 319 l 608 319 l 608 858 l 538 929 l 94 929 z "},"É":{"ha":632,"x_min":24,"x_max":608,"o":"m 249 1179 l 249 961 l 347 961 l 456 1179 l 249 1179 m 94 929 l 24 858 l 24 71 l 94 0 l 608 0 l 608 288 l 300 288 l 300 642 l 332 642 l 332 319 l 608 319 l 608 858 l 538 929 l 94 929 z "},"Ê":{"ha":632,"x_min":24,"x_max":608,"o":"m 94 929 l 24 858 l 24 71 l 94 0 l 608 0 l 608 288 l 300 288 l 300 642 l 332 642 l 332 319 l 608 319 l 608 858 l 538 929 l 94 929 m 201 1179 l 93 961 l 283 961 l 317 1051 l 349 961 l 539 961 l 431 1179 l 201 1179 z "},"Ë":{"ha":632,"x_min":24,"x_max":608,"o":"m 93 1179 l 93 961 l 300 961 l 300 1179 l 93 1179 m 332 1179 l 332 961 l 539 961 l 539 1179 l 332 1179 m 94 929 l 24 858 l 24 71 l 94 0 l 608 0 l 608 288 l 300 288 l 300 642 l 332 642 l 332 319 l 608 319 l 608 858 l 538 929 l 94 929 z "},"Ì":{"ha":599,"x_min":24,"x_max":575,"o":"m 168 1179 l 276 961 l 375 961 l 375 1179 l 168 1179 m 575 929 l 24 929 l 24 642 l 161 642 l 161 288 l 24 288 l 24 0 l 575 0 l 575 288 l 438 288 l 438 642 l 575 642 l 575 929 z "},"Í":{"ha":599,"x_min":24,"x_max":575,"o":"m 24 642 l 161 642 l 161 288 l 24 288 l 24 0 l 575 0 l 575 288 l 438 288 l 438 642 l 575 642 l 575 929 l 24 929 l 24 642 m 224 1179 l 224 961 l 322 961 l 431 1179 l 224 1179 z "},"Î":{"ha":599,"x_min":24,"x_max":575,"o":"m 185 1179 l 76 961 l 267 961 l 300 1051 l 332 961 l 522 961 l 414 1179 l 185 1179 m 24 642 l 161 642 l 161 288 l 24 288 l 24 0 l 575 0 l 575 288 l 438 288 l 438 642 l 575 642 l 575 929 l 24 929 l 24 642 z "},"Ï":{"ha":599,"x_min":24,"x_max":575,"o":"m 76 1179 l 76 961 l 283 961 l 283 1179 l 76 1179 m 315 1179 l 315 961 l 522 961 l 522 1179 l 315 1179 m 24 642 l 161 642 l 161 288 l 24 288 l 24 0 l 575 0 l 575 288 l 438 288 l 438 642 l 575 642 l 575 929 l 24 929 l 24 642 z "},"Ð":{"ha":678,"x_min":24,"x_max":654,"o":"m 583 929 l 654 858 l 654 71 l 583 0 l 69 0 l 69 319 l 24 319 l 24 610 l 69 610 l 69 929 l 583 929 m 346 288 l 378 288 l 378 642 l 346 642 l 346 288 z "},"Ñ":{"ha":632,"x_min":14,"x_max":617,"o":"m 538 929 l 24 929 l 24 0 l 300 0 l 300 642 l 332 642 l 332 0 l 608 0 l 608 858 l 538 929 m 361 1179 l 122 1179 l 14 961 l 204 961 l 238 1050 l 269 961 l 508 961 l 617 1179 l 426 1179 l 393 1089 l 361 1179 z "},"Ò":{"ha":632,"x_min":24,"x_max":608,"o":"m 171 1179 l 279 961 l 378 961 l 378 1179 l 171 1179 m 300 642 l 332 642 l 332 288 l 300 288 l 300 642 m 94 929 l 24 858 l 24 71 l 94 0 l 538 0 l 608 71 l 608 858 l 538 929 l 94 929 z "},"Ó":{"ha":632,"x_min":24,"x_max":608,"o":"m 249 1179 l 249 961 l 347 961 l 456 1179 l 249 1179 m 300 642 l 332 642 l 332 288 l 300 288 l 300 642 m 94 929 l 24 858 l 24 71 l 94 0 l 538 0 l 608 71 l 608 858 l 538 929 l 94 929 z "},"Ô":{"ha":632,"x_min":24,"x_max":608,"o":"m 300 642 l 332 642 l 332 288 l 300 288 l 300 642 m 94 929 l 24 858 l 24 71 l 94 0 l 538 0 l 608 71 l 608 858 l 538 929 l 94 929 m 201 1179 l 93 961 l 283 961 l 317 1051 l 349 961 l 539 961 l 431 1179 l 201 1179 z "},"Õ":{"ha":632,"x_min":14,"x_max":617,"o":"m 94 929 l 24 858 l 24 71 l 94 0 l 538 0 l 608 71 l 608 858 l 538 929 l 94 929 m 300 642 l 332 642 l 332 288 l 300 288 l 300 642 m 361 1179 l 122 1179 l 14 961 l 204 961 l 238 1050 l 269 961 l 508 961 l 617 1179 l 426 1179 l 393 1089 l 361 1179 z "},"Ö":{"ha":632,"x_min":24,"x_max":608,"o":"m 93 1179 l 93 961 l 300 961 l 300 1179 l 93 1179 m 332 1179 l 332 961 l 539 961 l 539 1179 l 332 1179 m 300 642 l 332 642 l 332 288 l 300 288 l 300 642 m 94 929 l 24 858 l 24 71 l 94 0 l 538 0 l 608 71 l 608 858 l 538 929 l 94 929 z "},"×":{"ha":549,"x_min":24,"x_max":525,"o":"m 319 214 l 269 264 l 219 214 l 24 408 l 74 458 l 24 510 l 229 714 l 279 664 l 329 714 l 525 519 l 475 469 l 524 419 l 319 214 z "},"Ø":{"ha":632,"x_min":24,"x_max":608,"o":"m 94 929 l 24 858 l 24 71 l 94 0 l 538 0 l 608 71 l 608 858 l 538 929 l 94 929 m 300 642 l 332 642 l 332 549 l 300 481 l 300 642 m 300 288 l 300 379 l 332 443 l 332 288 l 300 288 z "},"Ù":{"ha":632,"x_min":24,"x_max":608,"o":"m 378 1179 l 378 961 l 279 961 l 171 1179 l 378 1179 m 300 288 l 332 288 l 332 929 l 608 929 l 608 0 l 94 0 l 24 71 l 24 929 l 300 929 l 300 288 z "},"Ú":{"ha":632,"x_min":24,"x_max":608,"o":"m 456 1179 l 347 961 l 249 961 l 249 1179 l 456 1179 m 300 288 l 332 288 l 332 929 l 608 929 l 608 0 l 94 0 l 24 71 l 24 929 l 300 929 l 300 288 z "},"Û":{"ha":632,"x_min":24,"x_max":608,"o":"m 332 288 l 300 288 l 300 929 l 24 929 l 24 71 l 94 0 l 608 0 l 608 929 l 332 929 l 332 288 m 201 1179 l 93 961 l 283 961 l 317 1051 l 349 961 l 539 961 l 431 1179 l 201 1179 z "},"Ü":{"ha":632,"x_min":24,"x_max":608,"o":"m 539 1179 l 539 961 l 332 961 l 332 1179 l 539 1179 m 300 1179 l 300 961 l 93 961 l 93 1179 l 300 1179 m 300 288 l 332 288 l 332 929 l 608 929 l 608 0 l 94 0 l 24 71 l 24 929 l 300 929 l 300 288 z "},"Ý":{"ha":632,"x_min":24,"x_max":608,"o":"m 456 1179 l 347 961 l 249 961 l 249 1179 l 456 1179 m 608 71 l 538 0 l 24 0 l 24 288 l 332 288 l 332 319 l 94 319 l 24 392 l 24 929 l 300 929 l 300 610 l 332 610 l 332 929 l 608 929 l 608 71 z "},"Þ":{"ha":632,"x_min":24,"x_max":608,"o":"m 300 929 l 300 840 l 538 840 l 608 769 l 608 160 l 538 89 l 300 89 l 300 0 l 24 0 l 24 929 l 300 929 m 300 376 l 332 376 l 332 553 l 300 553 l 300 376 z "},"ß":{"ha":632,"x_min":24,"x_max":608,"o":"m 94 929 l 538 929 l 608 858 l 608 535 l 536 464 l 608 393 l 608 71 l 538 0 l 332 0 l 332 642 l 300 642 l 300 0 l 24 0 l 24 858 l 94 929 z "},"à":{"ha":632,"x_min":24,"x_max":608,"o":"m 171 1179 l 279 961 l 378 961 l 378 1179 l 171 1179 m 332 465 l 300 465 l 300 642 l 332 642 l 332 465 m 608 858 l 538 929 l 94 929 l 24 858 l 24 0 l 300 0 l 300 178 l 332 178 l 332 0 l 608 0 l 608 858 z "},"á":{"ha":632,"x_min":24,"x_max":608,"o":"m 249 1179 l 249 961 l 347 961 l 456 1179 l 249 1179 m 332 465 l 300 465 l 300 642 l 332 642 l 332 465 m 608 858 l 538 929 l 94 929 l 24 858 l 24 0 l 300 0 l 300 178 l 332 178 l 332 0 l 608 0 l 608 858 z "},"â":{"ha":632,"x_min":24,"x_max":608,"o":"m 332 465 l 300 465 l 300 642 l 332 642 l 332 465 m 608 858 l 538 929 l 94 929 l 24 858 l 24 0 l 300 0 l 300 178 l 332 178 l 332 0 l 608 0 l 608 858 m 201 1179 l 93 961 l 283 961 l 317 1051 l 349 961 l 539 961 l 431 1179 l 201 1179 z "},"ã":{"ha":632,"x_min":14,"x_max":617,"o":"m 332 465 l 300 465 l 300 642 l 332 642 l 332 465 m 608 858 l 538 929 l 94 929 l 24 858 l 24 0 l 300 0 l 300 178 l 332 178 l 332 0 l 608 0 l 608 858 m 361 1179 l 122 1179 l 14 961 l 204 961 l 238 1050 l 269 961 l 508 961 l 617 1179 l 426 1179 l 393 1089 l 361 1179 z "},"ä":{"ha":632,"x_min":24,"x_max":608,"o":"m 93 1179 l 93 961 l 300 961 l 300 1179 l 93 1179 m 332 1179 l 332 961 l 539 961 l 539 1179 l 332 1179 m 332 465 l 300 465 l 300 642 l 332 642 l 332 465 m 608 858 l 538 929 l 94 929 l 24 858 l 24 0 l 300 0 l 300 178 l 332 178 l 332 0 l 608 0 l 608 858 z "},"å":{"ha":632,"x_min":24,"x_max":608,"o":"m 213 1179 l 213 961 l 419 961 l 419 1179 l 213 1179 m 332 465 l 300 465 l 300 642 l 332 642 l 332 465 m 608 858 l 538 929 l 94 929 l 24 858 l 24 0 l 300 0 l 300 178 l 332 178 l 332 0 l 608 0 l 608 858 z "},"æ":{"ha":914,"x_min":24,"x_max":890,"o":"m 890 319 l 608 319 l 608 288 l 890 288 l 890 0 l 332 0 l 332 178 l 300 178 l 300 0 l 24 0 l 24 858 l 94 929 l 890 929 l 890 642 l 608 642 l 608 610 l 890 610 l 890 319 m 300 465 l 332 465 l 332 642 l 300 642 l 300 465 z "},"ç":{"ha":632,"x_min":24,"x_max":608,"o":"m 608 481 l 332 481 l 332 642 l 300 642 l 300 288 l 608 288 l 608 71 l 538 0 l 454 0 l 383 -72 l 178 -72 l 178 0 l 94 0 l 24 71 l 24 858 l 94 929 l 538 929 l 608 858 l 608 481 z "},"è":{"ha":604,"x_min":24,"x_max":581,"o":"m 300 319 l 581 319 l 581 610 l 300 610 l 300 642 l 581 642 l 581 929 l 24 929 l 24 0 l 581 0 l 581 288 l 300 288 l 300 319 m 168 1179 l 276 961 l 375 961 l 375 1179 l 168 1179 z "},"é":{"ha":604,"x_min":24,"x_max":581,"o":"m 300 319 l 581 319 l 581 610 l 300 610 l 300 642 l 581 642 l 581 929 l 24 929 l 24 0 l 581 0 l 581 288 l 300 288 l 300 319 m 225 1179 l 225 961 l 324 961 l 432 1179 l 225 1179 z "},"ê":{"ha":604,"x_min":24,"x_max":581,"o":"m 188 1179 l 79 961 l 269 961 l 303 1051 l 335 961 l 525 961 l 417 1179 l 188 1179 m 300 319 l 581 319 l 581 610 l 300 610 l 300 642 l 581 642 l 581 929 l 24 929 l 24 0 l 581 0 l 581 288 l 300 288 l 300 319 z "},"ë":{"ha":604,"x_min":24,"x_max":581,"o":"m 79 1179 l 79 961 l 286 961 l 286 1179 l 79 1179 m 318 1179 l 318 961 l 525 961 l 525 1179 l 318 1179 m 300 319 l 581 319 l 581 610 l 300 610 l 300 642 l 581 642 l 581 929 l 24 929 l 24 0 l 581 0 l 581 288 l 300 288 l 300 319 z "},"ì":{"ha":324,"x_min":24,"x_max":300,"o":"m 36 1179 l 144 961 l 243 961 l 243 1179 l 36 1179 m 300 0 l 300 929 l 24 929 l 24 0 l 300 0 z "},"í":{"ha":324,"x_min":24,"x_max":300,"o":"m 81 1179 l 81 961 l 179 961 l 288 1179 l 81 1179 m 300 0 l 300 929 l 24 929 l 24 0 l 300 0 z "},"î":{"ha":324,"x_min":-61,"x_max":385,"o":"m 47 1179 l -61 961 l 129 961 l 163 1051 l 194 961 l 385 961 l 276 1179 l 47 1179 m 300 0 l 300 929 l 24 929 l 24 0 l 300 0 z "},"ï":{"ha":324,"x_min":-61,"x_max":385,"o":"m -61 1179 l -61 961 l 146 961 l 146 1179 l -61 1179 m 178 1179 l 178 961 l 385 961 l 385 1179 l 178 1179 m 300 0 l 300 929 l 24 929 l 24 0 l 300 0 z "},"ð":{"ha":632,"x_min":24,"x_max":608,"o":"m 24 71 l 24 610 l 300 610 l 300 288 l 332 288 l 332 642 l 24 642 l 24 858 l 94 929 l 178 929 l 178 1000 l 454 1000 l 454 929 l 538 929 l 608 858 l 608 71 l 538 0 l 94 0 l 24 71 z "},"ñ":{"ha":635,"x_min":15,"x_max":618,"o":"m 333 929 l 333 739 l 267 929 l 24 929 l 24 0 l 299 0 l 299 196 l 365 0 l 611 0 l 611 929 l 333 929 m 363 1179 l 124 1179 l 15 961 l 206 961 l 239 1050 l 271 961 l 510 961 l 618 1179 l 428 1179 l 394 1089 l 363 1179 z "},"ò":{"ha":632,"x_min":24,"x_max":608,"o":"m 171 1179 l 279 961 l 378 961 l 378 1179 l 171 1179 m 300 642 l 332 642 l 332 288 l 300 288 l 300 642 m 94 929 l 24 858 l 24 71 l 94 0 l 538 0 l 608 71 l 608 858 l 538 929 l 94 929 z "},"ó":{"ha":632,"x_min":24,"x_max":608,"o":"m 249 1179 l 249 961 l 347 961 l 456 1179 l 249 1179 m 300 642 l 332 642 l 332 288 l 300 288 l 300 642 m 94 929 l 24 858 l 24 71 l 94 0 l 538 0 l 608 71 l 608 858 l 538 929 l 94 929 z "},"ô":{"ha":632,"x_min":24,"x_max":608,"o":"m 300 642 l 332 642 l 332 288 l 300 288 l 300 642 m 94 929 l 24 858 l 24 71 l 94 0 l 538 0 l 608 71 l 608 858 l 538 929 l 94 929 m 201 1179 l 93 961 l 283 961 l 317 1051 l 349 961 l 539 961 l 431 1179 l 201 1179 z "},"õ":{"ha":632,"x_min":14,"x_max":617,"o":"m 94 929 l 24 858 l 24 71 l 94 0 l 538 0 l 608 71 l 608 858 l 538 929 l 94 929 m 300 642 l 332 642 l 332 288 l 300 288 l 300 642 m 361 1179 l 122 1179 l 14 961 l 204 961 l 238 1050 l 269 961 l 508 961 l 617 1179 l 426 1179 l 393 1089 l 361 1179 z "},"ö":{"ha":632,"x_min":24,"x_max":608,"o":"m 93 1179 l 93 961 l 300 961 l 300 1179 l 93 1179 m 332 1179 l 332 961 l 539 961 l 539 1179 l 332 1179 m 300 642 l 332 642 l 332 288 l 300 288 l 300 642 m 94 929 l 24 858 l 24 71 l 94 0 l 538 0 l 608 71 l 608 858 l 538 929 l 94 929 z "},"÷":{"ha":503,"x_min":24,"x_max":479,"o":"m 479 610 l 24 610 l 24 319 l 479 319 l 479 610 m 157 860 l 157 642 l 364 642 l 364 860 l 157 860 m 157 288 l 157 69 l 364 69 l 364 288 l 157 288 z "},"ø":{"ha":632,"x_min":24,"x_max":608,"o":"m 94 929 l 24 858 l 24 71 l 94 0 l 538 0 l 608 71 l 608 858 l 538 929 l 94 929 m 300 642 l 332 642 l 332 549 l 300 481 l 300 642 m 300 288 l 300 379 l 332 443 l 332 288 l 300 288 z "},"ù":{"ha":632,"x_min":24,"x_max":608,"o":"m 171 1179 l 279 961 l 378 961 l 378 1179 l 171 1179 m 332 288 l 300 288 l 300 929 l 24 929 l 24 71 l 94 0 l 538 0 l 608 71 l 608 929 l 332 929 l 332 288 z "},"ú":{"ha":632,"x_min":24,"x_max":608,"o":"m 300 929 l 24 929 l 24 71 l 94 0 l 538 0 l 608 71 l 608 929 l 332 929 l 332 288 l 300 288 l 300 929 m 249 1179 l 249 961 l 347 961 l 456 1179 l 249 1179 z "},"û":{"ha":632,"x_min":24,"x_max":608,"o":"m 332 288 l 300 288 l 300 929 l 24 929 l 24 71 l 94 0 l 538 0 l 608 71 l 608 929 l 332 929 l 332 288 m 201 1179 l 93 961 l 283 961 l 317 1051 l 349 961 l 539 961 l 431 1179 l 201 1179 z "},"ü":{"ha":632,"x_min":24,"x_max":608,"o":"m 300 929 l 24 929 l 24 71 l 94 0 l 538 0 l 608 71 l 608 929 l 332 929 l 332 288 l 300 288 l 300 929 m 93 1179 l 93 961 l 300 961 l 300 1179 l 93 1179 m 332 1179 l 332 961 l 539 961 l 539 1179 l 332 1179 z "},"ý":{"ha":632,"x_min":24,"x_max":608,"o":"m 608 929 l 332 929 l 332 610 l 300 610 l 300 929 l 24 929 l 24 392 l 94 319 l 332 319 l 332 288 l 24 288 l 24 71 l 94 0 l 538 0 l 608 71 l 608 929 m 249 1179 l 249 961 l 347 961 l 456 1179 l 249 1179 z "},"þ":{"ha":632,"x_min":24,"x_max":608,"o":"m 300 929 l 300 840 l 538 840 l 608 769 l 608 160 l 538 89 l 300 89 l 300 0 l 24 0 l 24 929 l 300 929 m 300 376 l 332 376 l 332 553 l 300 553 l 300 376 z "},"ÿ":{"ha":632,"x_min":24,"x_max":608,"o":"m 539 1179 l 539 961 l 332 961 l 332 1179 l 539 1179 m 300 1179 l 300 961 l 93 961 l 93 1179 l 300 1179 m 608 71 l 538 0 l 94 0 l 24 71 l 24 288 l 332 288 l 332 319 l 94 319 l 24 392 l 24 929 l 300 929 l 300 610 l 332 610 l 332 929 l 608 929 l 608 71 z "}}}
